<?xml version="1.0" encoding="UTF-8" standalone="no"?>
<svg width="24px" height="24px" viewBox="0 0 24 24" version="1.1" xmlns="http://www.w3.org/2000/svg" xmlns:xlink="http://www.w3.org/1999/xlink" xmlns:sketch="http://www.bohemiancoding.com/sketch/ns">
    <!-- Generator: Sketch 3.5.2 (25235) - http://www.bohemiancoding.com/sketch -->
    <title>facebook</title>
    <desc>Created with Sketch.</desc>
    <defs></defs>
    <g id="Page-1" stroke="none" stroke-width="1" fill="none" fill-rule="evenodd" sketch:type="MSPage">
        <g id="facebook" sketch:type="MSArtboardGroup" fill="#333333">
            <path d="M16.3846154,2.14423077 L16.3846154,5.31730769 L14.4975962,5.31730769 C13.8084901,5.31730769 13.3437512,5.46153702 13.1033654,5.75 C12.8629796,6.03846298 12.7427885,6.47115096 12.7427885,7.04807692 L12.7427885,9.31971154 L16.2644231,9.31971154 L15.7956731,12.8774038 L12.7427885,12.8774038 L12.7427885,22 L9.06490385,22 L9.06490385,12.8774038 L6,12.8774038 L6,9.31971154 L9.06490385,9.31971154 L9.06490385,6.69951923 C9.06490385,5.20912716 9.48156635,4.05328936 10.3149038,3.23197115 C11.1482413,2.41065294 12.2580059,2 13.6442308,2 C14.8221213,2 15.7355737,2.04807644 16.3846154,2.14423077 L16.3846154,2.14423077 Z" id="" sketch:type="MSShapeGroup"></path>
        </g>
    </g>
</svg>
