<?xml version="1.0" encoding="UTF-8" standalone="no"?>
<svg width="24px" height="24px" viewBox="0 0 24 24" version="1.1" xmlns="http://www.w3.org/2000/svg" xmlns:xlink="http://www.w3.org/1999/xlink" xmlns:sketch="http://www.bohemiancoding.com/sketch/ns">
    <!-- Generator: Sketch 3.5.2 (25235) - http://www.bohemiancoding.com/sketch -->
    <title>twitter</title>
    <desc>Created with Sketch.</desc>
    <defs></defs>
    <g id="Page-1" stroke="none" stroke-width="1" fill="none" fill-rule="evenodd" sketch:type="MSPage">
        <g id="twitter" sketch:type="MSArtboardGroup" fill="#333333">
            <path d="M20.5111111,6.68888889 C20.0148123,7.41481844 19.4148183,8.03333078 18.7111111,8.54444444 C18.7185186,8.64814867 18.7222222,8.80370267 18.7222222,9.01111111 C18.7222222,9.97407889 18.5814829,10.9351804 18.3,11.8944444 C18.0185171,12.8537085 17.5907436,13.7740697 17.0166667,14.6555556 C16.4425897,15.5370414 15.7592632,16.3166633 14.9666667,16.9944444 C14.1740701,17.6722256 13.2185241,18.2129609 12.1,18.6166667 C10.9814759,19.0203724 9.78519156,19.2222222 8.51111111,19.2222222 C6.50369367,19.2222222 4.666675,18.6851906 3,17.6111111 C3.25926056,17.6407409 3.54814656,17.6555556 3.86666667,17.6555556 C5.53334167,17.6555556 7.018512,17.1444496 8.32222222,16.1222222 C7.54444056,16.1074073 6.84815122,15.8685208 6.23333333,15.4055556 C5.61851544,14.9425903 5.19629744,14.3518554 4.96666667,13.6333333 C5.21111233,13.6703706 5.437036,13.6888889 5.64444444,13.6888889 C5.96296456,13.6888889 6.27777622,13.6481486 6.58888889,13.5666667 C5.75925511,13.3962954 5.07222494,12.9833366 4.52777778,12.3277778 C3.98333061,11.6722189 3.71111111,10.9111154 3.71111111,10.0444444 L3.71111111,10 C4.21481733,10.2814829 4.75555267,10.4333332 5.33333333,10.4555556 C4.844442,10.129628 4.455557,9.70370633 4.16666667,9.17777778 C3.87777633,8.65184922 3.73333333,8.08148456 3.73333333,7.46666667 C3.73333333,6.81481156 3.89629467,6.21111389 4.22222222,5.65555556 C5.118523,6.75926478 6.20925283,7.64258928 7.49444444,8.30555556 C8.77963606,8.96852183 10.1555482,9.33703667 11.6222222,9.41111111 C11.5629627,9.12962822 11.5333333,8.85555689 11.5333333,8.58888889 C11.5333333,7.59629133 11.8833298,6.7500035 12.5833333,6.05 C13.2833368,5.3499965 14.1296247,5 15.1222222,5 C16.1592644,5 17.0333298,5.377774 17.7444444,6.13333333 C18.5518559,5.977777 19.3111076,5.688891 20.0222222,5.26666667 C19.7481468,6.11852278 19.2222261,6.77777544 18.4444444,7.24444444 C19.1333368,7.17037 19.8222188,6.98518667 20.5111111,6.68888889 L20.5111111,6.68888889 Z" id="" sketch:type="MSShapeGroup"></path>
        </g>
    </g>
</svg>